<svg xmlns="http://www.w3.org/2000/svg" xmlns:xlink="http://www.w3.org/1999/xlink" width="1920" height="1112.036" viewBox="0 0 1920 1112.036">
  <defs>
    <linearGradient id="linear-gradient" x1="0.946" y1="0.181" x2="-0.159" y2="1.15" gradientUnits="objectBoundingBox">
      <stop offset="0" stop-color="#9a87ff"/>
      <stop offset="1" stop-color="#4100b3"/>
    </linearGradient>
  </defs>
  <g id="Group_34" data-name="Group 34" transform="translate(0 -53.964)">
    <rect id="Rectangle_1" data-name="Rectangle 1" width="1920" height="1100" transform="translate(1920 1166) rotate(180)" fill="url(#linear-gradient)"/>
    <g id="Shape_13" data-name="Shape 13" transform="translate(146.545 521.597)">
      <path id="Path_130" data-name="Path 130" d="M481.687,228.526a35.207,35.207,0,1,1-35.207,35.207A35.207,35.207,0,0,1,481.687,228.526Zm69.567,35.207A69.567,69.567,0,1,0,481.687,333.3,69.567,69.567,0,0,0,551.254,263.733Z" transform="translate(-412.12 -176.897)" fill="#7004d8" fill-rule="evenodd" opacity="0.89"/>
      <path id="Path_131" data-name="Path 131" d="M453.419,182.724a32.7,32.7,0,1,1-32.695,32.7A32.7,32.7,0,0,1,453.419,182.724Zm65.419,32.7a65.419,65.419,0,1,0-65.419,65.419A65.419,65.419,0,0,0,518.837,215.419Z" transform="translate(-370.272 -150)" fill="#b263ff" fill-rule="evenodd"/>
    </g>
    <g id="Shape_12" data-name="Shape 12" transform="matrix(-0.966, -0.259, 0.259, -0.966, 360.214, 388.872)">
      <path id="Path_132" data-name="Path 132" d="M38.2,103.057l-9.615-3.63a15.453,15.453,0,0,1-8.929-19.917l5.9-15.562L9.945,58.021A15.453,15.453,0,0,1,1.016,38.1l3.63-9.616A15.453,15.453,0,0,1,24.564,19.56l15.595,5.917L46.052,9.944A15.453,15.453,0,0,1,65.969,1.016l9.616,3.63a15.453,15.453,0,0,1,8.928,19.918L78.629,40.072l15.5,5.881a15.453,15.453,0,0,1,8.929,19.918l-3.63,9.615a15.417,15.417,0,0,1-19.918,8.929L64.033,78.543,58.12,94.128A15.453,15.453,0,0,1,38.2,103.057Z" transform="translate(16.682 5.307)" fill="#6800ce" fill-rule="evenodd" opacity="0.89"/>
      <path id="Union_5" data-name="Union 5" d="M44.042,9.52l-5.652,14.9L23.517,18.774A14.794,14.794,0,0,0,4.448,27.323L.973,36.528A14.8,14.8,0,0,0,9.521,55.6l14.9,5.652L18.774,76.121a14.793,14.793,0,0,0,8.547,19.068l9.206,3.477A14.8,14.8,0,0,0,55.6,90.118l5.651-14.9,14.873,5.643A14.76,14.76,0,0,0,95.19,72.317l3.475-9.205a14.793,14.793,0,0,0-8.548-19.069l-14.9-5.651,5.643-14.874A14.794,14.794,0,0,0,72.317,4.449L63.112.973A14.646,14.646,0,0,0,57.868,0,14.825,14.825,0,0,0,44.042,9.52Z" transform="translate(1.088 0)" fill="#cc9ff8"/>
    </g>
    <g id="Shape_13-2" data-name="Shape 13" transform="translate(135.428 89.792)">
      <path id="Path_130-2" data-name="Path 130" d="M458.384,217.016A23.414,23.414,0,1,1,434.97,240.43,23.414,23.414,0,0,1,458.384,217.016Zm46.264,23.414a46.264,46.264,0,1,0-46.264,46.264A46.264,46.264,0,0,0,504.649,240.43Z" transform="translate(-412.12 -182.681)" fill="#6e0ad7" fill-rule="evenodd" opacity="0.89"/>
      <path id="Path_131-2" data-name="Path 131" d="M431.505,171.762a21.743,21.743,0,1,1-21.743,21.743A21.743,21.743,0,0,1,431.505,171.762Zm43.505,21.743a43.505,43.505,0,1,0-43.505,43.505A43.505,43.505,0,0,0,475.011,193.505Z" transform="translate(-376.21 -150)" fill="#b263ff" fill-rule="evenodd"/>
    </g>
    <g id="Shape_14" data-name="Shape 14" transform="translate(455.196 167.527)" opacity="0.93">
      <path id="Path_128" data-name="Path 128" d="M450.134,201.419l-41.388,20.749a8.753,8.753,0,0,0-3.973,11.809l20.749,41.387a8.753,8.753,0,0,0,11.809,3.973l41.388-20.749a8.753,8.753,0,0,0,3.973-11.809l-20.749-41.388A8.753,8.753,0,0,0,450.134,201.419Z" transform="translate(-403.823 -188.944)" fill="#3c17bf" opacity="0.89"/>
      <path id="Path_129" data-name="Path 129" d="M442.549,150.852l-37.132,18.616a7.853,7.853,0,0,0-3.565,10.6L420.468,217.2a7.853,7.853,0,0,0,10.6,3.565L468.2,202.145a7.853,7.853,0,0,0,3.565-10.6l-18.616-37.133A7.853,7.853,0,0,0,442.549,150.852Z" transform="translate(-392.149 -150)" fill="#8256ff"/>
    </g>
    <g id="Shape_14-2" data-name="Shape 14" transform="translate(30.196 320.527)" opacity="0.93">
      <path id="Path_128-2" data-name="Path 128" d="M450.134,201.419l-41.388,20.749a8.753,8.753,0,0,0-3.973,11.809l20.749,41.387a8.753,8.753,0,0,0,11.809,3.973l41.388-20.749a8.753,8.753,0,0,0,3.973-11.809l-20.749-41.388A8.753,8.753,0,0,0,450.134,201.419Z" transform="translate(-403.823 -188.944)" fill="#6d11b1" opacity="0.89"/>
      <path id="Path_129-2" data-name="Path 129" d="M442.549,150.852l-37.132,18.616a7.853,7.853,0,0,0-3.565,10.6L420.468,217.2a7.853,7.853,0,0,0,10.6,3.565L468.2,202.145a7.853,7.853,0,0,0,3.565-10.6l-18.616-37.133A7.853,7.853,0,0,0,442.549,150.852Z" transform="translate(-392.149 -150)" fill="#a987fd"/>
    </g>
    <g id="Shape_13-3" data-name="Shape 13" transform="translate(1572.745 521.597)">
      <path id="Path_130-3" data-name="Path 130" d="M481.687,228.526a35.207,35.207,0,1,0,35.207,35.207A35.207,35.207,0,0,0,481.687,228.526ZM412.12,263.733A69.567,69.567,0,1,1,481.687,333.3,69.567,69.567,0,0,1,412.12,263.733Z" transform="translate(-402.689 -176.897)" fill="#7004d8" fill-rule="evenodd" opacity="0.89"/>
      <path id="Path_131-3" data-name="Path 131" d="M453.419,182.724a32.7,32.7,0,1,0,32.695,32.7A32.7,32.7,0,0,0,453.419,182.724ZM388,215.419a65.419,65.419,0,1,1,65.419,65.419A65.419,65.419,0,0,1,388,215.419Z" transform="translate(-388 -150)" fill="#b263ff" fill-rule="evenodd"/>
    </g>
    <g id="Shape_12-2" data-name="Shape 12" transform="matrix(0.966, -0.259, 0.259, 0.966, 1480.384, 282.937)">
      <path id="Path_132-2" data-name="Path 132" d="M38.2,1.016l-9.615,3.63a15.453,15.453,0,0,0-8.929,19.917l5.9,15.562L9.945,46.052A15.453,15.453,0,0,0,1.016,65.969l3.63,9.616a15.453,15.453,0,0,0,19.918,8.928L40.159,78.6l5.893,15.532a15.453,15.453,0,0,0,19.918,8.928l9.616-3.63a15.453,15.453,0,0,0,8.928-19.918L78.629,64l15.5-5.881A15.453,15.453,0,0,0,103.057,38.2l-3.63-9.615a15.417,15.417,0,0,0-19.918-8.929L64.033,25.53,58.12,9.945A15.453,15.453,0,0,0,38.2,1.016Z" transform="translate(15.594 0)" fill="#490792" fill-rule="evenodd" opacity="0.89"/>
      <path id="Union_5-2" data-name="Union 5" d="M44.042,90.118l-5.652-14.9L23.517,80.864A14.794,14.794,0,0,1,4.448,72.316L.973,63.11A14.8,14.8,0,0,1,9.521,44.041l14.9-5.652L18.774,23.517A14.793,14.793,0,0,1,27.321,4.449L36.528.972A14.8,14.8,0,0,1,55.6,9.521l5.651,14.9,14.873-5.643A14.76,14.76,0,0,1,95.19,27.321l3.475,9.205A14.793,14.793,0,0,1,90.117,55.6l-14.9,5.651,5.643,14.874A14.794,14.794,0,0,1,72.317,95.19l-9.205,3.475a14.646,14.646,0,0,1-5.244.973A14.825,14.825,0,0,1,44.042,90.118Z" transform="translate(0 9.742)" fill="#cc9ff8"/>
    </g>
    <g id="Shape_13-4" data-name="Shape 13" transform="translate(1633.627 89.792)">
      <path id="Path_130-4" data-name="Path 130" d="M458.384,217.016A23.414,23.414,0,1,0,481.8,240.43,23.414,23.414,0,0,0,458.384,217.016ZM412.12,240.43a46.264,46.264,0,1,1,46.264,46.264A46.264,46.264,0,0,1,412.12,240.43Z" transform="translate(-405.848 -182.681)" fill="#4c26c9" fill-rule="evenodd" opacity="0.89"/>
      <path id="Path_131-4" data-name="Path 131" d="M431.505,171.762a21.743,21.743,0,1,0,21.743,21.743A21.743,21.743,0,0,0,431.505,171.762ZM388,193.505a43.505,43.505,0,1,1,43.505,43.505A43.505,43.505,0,0,1,388,193.505Z" transform="translate(-388 -150)" fill="#7f54f9" fill-rule="evenodd"/>
    </g>
    <g id="Shape_14-3" data-name="Shape 14" transform="translate(1332.196 167.527)" opacity="0.93">
      <path id="Path_128-3" data-name="Path 128" d="M437.331,201.419l41.388,20.749a8.753,8.753,0,0,1,3.973,11.809l-20.749,41.387a8.753,8.753,0,0,1-11.809,3.973l-41.388-20.749a8.753,8.753,0,0,1-3.973-11.809l20.749-41.388A8.753,8.753,0,0,1,437.331,201.419Z" transform="translate(-403.178 -188.944)" fill="#4824c7" opacity="0.89"/>
      <path id="Path_129-3" data-name="Path 129" d="M431.063,150.852,468.2,169.468a7.853,7.853,0,0,1,3.565,10.6L453.145,217.2a7.853,7.853,0,0,1-10.6,3.565l-37.133-18.616a7.853,7.853,0,0,1-3.565-10.6l18.616-37.133A7.853,7.853,0,0,1,431.063,150.852Z" transform="translate(-401 -150)" fill="#8257fd"/>
    </g>
    <g id="Shape_14-4" data-name="Shape 14" transform="translate(1757.196 320.527)" opacity="0.93">
      <path id="Path_128-4" data-name="Path 128" d="M437.331,201.419l41.388,20.749a8.753,8.753,0,0,1,3.973,11.809l-20.749,41.387a8.753,8.753,0,0,1-11.809,3.973l-41.388-20.749a8.753,8.753,0,0,1-3.973-11.809l20.749-41.388A8.753,8.753,0,0,1,437.331,201.419Z" transform="translate(-403.178 -188.944)" fill="#3c17bf" opacity="0.89"/>
      <path id="Path_129-4" data-name="Path 129" d="M431.063,150.852,468.2,169.468a7.853,7.853,0,0,1,3.565,10.6L453.145,217.2a7.853,7.853,0,0,1-10.6,3.565l-37.133-18.616a7.853,7.853,0,0,1-3.565-10.6l18.616-37.133A7.853,7.853,0,0,1,431.063,150.852Z" transform="translate(-401 -150)" fill="#a987fd"/>
    </g>
    <g id="Shape_12-3" data-name="Shape 12" transform="matrix(0.966, -0.259, 0.259, 0.966, 1057.384, 84.937)">
      <path id="Path_132-3" data-name="Path 132" d="M38.2,1.016l-9.615,3.63a15.453,15.453,0,0,0-8.929,19.917l5.9,15.562L9.945,46.052A15.453,15.453,0,0,0,1.016,65.969l3.63,9.616a15.453,15.453,0,0,0,19.918,8.928L40.159,78.6l5.893,15.532a15.453,15.453,0,0,0,19.918,8.928l9.616-3.63a15.453,15.453,0,0,0,8.928-19.918L78.629,64l15.5-5.881A15.453,15.453,0,0,0,103.057,38.2l-3.63-9.615a15.417,15.417,0,0,0-19.918-8.929L64.033,25.53,58.12,9.945A15.453,15.453,0,0,0,38.2,1.016Z" transform="translate(15.594 0)" fill="#490792" fill-rule="evenodd" opacity="0.89"/>
      <path id="Union_5-3" data-name="Union 5" d="M44.042,90.118l-5.652-14.9L23.517,80.864A14.794,14.794,0,0,1,4.448,72.316L.973,63.11A14.8,14.8,0,0,1,9.521,44.041l14.9-5.652L18.774,23.517A14.793,14.793,0,0,1,27.321,4.449L36.528.972A14.8,14.8,0,0,1,55.6,9.521l5.651,14.9,14.873-5.643A14.76,14.76,0,0,1,95.19,27.321l3.475,9.205A14.793,14.793,0,0,1,90.117,55.6l-14.9,5.651,5.643,14.874A14.794,14.794,0,0,1,72.317,95.19l-9.205,3.475a14.646,14.646,0,0,1-5.244.973A14.825,14.825,0,0,1,44.042,90.118Z" transform="translate(0 9.742)" fill="#cc9ff8"/>
    </g>
    <g id="Shape_13-5" data-name="Shape 13" transform="translate(1208.144 334.067)">
      <path id="Path_130-5" data-name="Path 130" d="M498.17,236.667a43.549,43.549,0,1,0,43.549,43.549A43.549,43.549,0,0,0,498.17,236.667Zm-86.05,43.549a86.05,86.05,0,1,1,86.05,86.05A86.05,86.05,0,0,1,412.12,280.216Z" transform="translate(-400.454 -172.805)" fill="#7004d8" fill-rule="evenodd" opacity="0.89"/>
      <path id="Path_131-5" data-name="Path 131" d="M468.919,190.477a40.442,40.442,0,1,0,40.442,40.442A40.442,40.442,0,0,0,468.919,190.477ZM388,230.919a80.919,80.919,0,1,1,80.919,80.919A80.919,80.919,0,0,1,388,230.919Z" transform="translate(-388 -150)" fill="#b263ff" fill-rule="evenodd"/>
    </g>
    <g id="Shape_13-6" data-name="Shape 13" transform="translate(734.828 176.527)">
      <path id="Path_130-6" data-name="Path 130" d="M470.184,222.845A29.386,29.386,0,1,1,440.8,252.23,29.386,29.386,0,0,1,470.184,222.845Zm58.064,29.386a58.064,58.064,0,1,0-58.064,58.064A58.064,58.064,0,0,0,528.249,252.23Z" transform="translate(-412.12 -179.752)" fill="#7004d8" fill-rule="evenodd" opacity="0.89"/>
      <path id="Path_131-6" data-name="Path 131" d="M442.6,177.313A27.289,27.289,0,1,1,415.313,204.6,27.289,27.289,0,0,1,442.6,177.313ZM497.2,204.6a54.6,54.6,0,1,0-54.6,54.6A54.6,54.6,0,0,0,497.2,204.6Z" transform="translate(-373.203 -150)" fill="#b263ff" fill-rule="evenodd"/>
    </g>
    <g id="Shape_14-5" data-name="Shape 14" transform="translate(555.19 374.87)" opacity="0.93">
      <path id="Path_128-5" data-name="Path 128" d="M481.22,202.057l-69.169,34.676a14.629,14.629,0,0,0-6.64,19.736l34.676,69.169a14.629,14.629,0,0,0,19.736,6.64L528.992,297.6a14.628,14.628,0,0,0,6.64-19.736L500.956,208.7A14.629,14.629,0,0,0,481.22,202.057Z" transform="translate(-403.823 -181.207)" fill="#6900a5" opacity="0.89"/>
      <path id="Path_129-5" data-name="Path 129" d="M470.439,151.424l-62.057,31.112a13.124,13.124,0,0,0-5.958,17.707L433.536,262.3a13.124,13.124,0,0,0,17.707,5.958L513.3,237.147a13.125,13.125,0,0,0,5.958-17.707l-31.112-62.057A13.125,13.125,0,0,0,470.439,151.424Z" transform="translate(-386.207 -150)" fill="#ac8aff"/>
    </g>
    <g id="Shape_12-4" data-name="Shape 12" transform="matrix(-0.966, -0.259, 0.259, -0.966, 1053.214, 486.872)">
      <path id="Path_132-4" data-name="Path 132" d="M38.2,103.057l-9.615-3.63a15.453,15.453,0,0,1-8.929-19.917l5.9-15.562L9.945,58.021A15.453,15.453,0,0,1,1.016,38.1l3.63-9.616A15.453,15.453,0,0,1,24.564,19.56l15.595,5.917L46.052,9.944A15.453,15.453,0,0,1,65.969,1.016l9.616,3.63a15.453,15.453,0,0,1,8.928,19.918L78.629,40.072l15.5,5.881a15.453,15.453,0,0,1,8.929,19.918l-3.63,9.615a15.417,15.417,0,0,1-19.918,8.929L64.033,78.543,58.12,94.128A15.453,15.453,0,0,1,38.2,103.057Z" transform="translate(16.682 5.307)" fill="#6800ce" fill-rule="evenodd" opacity="0.89"/>
      <path id="Union_5-4" data-name="Union 5" d="M44.042,9.52l-5.652,14.9L23.517,18.774A14.794,14.794,0,0,0,4.448,27.323L.973,36.528A14.8,14.8,0,0,0,9.521,55.6l14.9,5.652L18.774,76.121a14.793,14.793,0,0,0,8.547,19.068l9.206,3.477A14.8,14.8,0,0,0,55.6,90.118l5.651-14.9,14.873,5.643A14.76,14.76,0,0,0,95.19,72.317l3.475-9.205a14.793,14.793,0,0,0-8.548-19.069l-14.9-5.651,5.643-14.874A14.794,14.794,0,0,0,72.317,4.449L63.112.973A14.646,14.646,0,0,0,57.868,0,14.825,14.825,0,0,0,44.042,9.52Z" transform="translate(1.088 0)" fill="#cc9ff8"/>
    </g>
    <g id="Shape_13-7" data-name="Shape 13" transform="translate(169.545 1009.597)">
      <path id="Path_130-7" data-name="Path 130" d="M481.687,228.526a35.207,35.207,0,1,1-35.207,35.207A35.207,35.207,0,0,1,481.687,228.526Zm69.567,35.207A69.567,69.567,0,1,0,481.687,333.3,69.567,69.567,0,0,0,551.254,263.733Z" transform="translate(-412.12 -176.897)" fill="#7004d8" fill-rule="evenodd" opacity="0.89"/>
      <path id="Path_131-7" data-name="Path 131" d="M453.419,182.724a32.7,32.7,0,0,1,32.7,32.7c0,18.057-14.638,22.988-32.7,22.988s-32.695-4.931-32.695-22.988A32.7,32.7,0,0,1,453.419,182.724Zm65.419,32.7a65.419,65.419,0,1,0-65.419,65.419A65.419,65.419,0,0,0,518.837,215.419Z" transform="translate(-370.272 -150)" fill="#b263ff" fill-rule="evenodd"/>
    </g>
    <g id="Shape_12-5" data-name="Shape 12" transform="matrix(-0.966, -0.259, 0.259, -0.966, 336.162, 879.59)">
      <path id="Path_132-5" data-name="Path 132" d="M38.2,103.057l-9.615-3.63a15.453,15.453,0,0,1-8.929-19.917l5.9-15.562L9.945,58.021A15.453,15.453,0,0,1,1.016,38.1l3.63-9.616A15.453,15.453,0,0,1,24.564,19.56l15.595,5.917L46.052,9.944A15.453,15.453,0,0,1,65.969,1.016l9.616,3.63a15.453,15.453,0,0,1,8.928,19.918L78.629,40.072l15.5,5.881a15.453,15.453,0,0,1,8.929,19.918l-3.63,9.615a15.417,15.417,0,0,1-19.918,8.929L64.033,78.543,58.12,94.128A15.453,15.453,0,0,1,38.2,103.057Z" transform="translate(15.594 5.307)" fill="#6800ce" fill-rule="evenodd" opacity="0.89"/>
      <path id="Union_5-5" data-name="Union 5" d="M44.042,9.52l-5.652,14.9L23.517,18.774A14.794,14.794,0,0,0,4.448,27.323L.973,36.528A14.8,14.8,0,0,0,9.521,55.6l14.9,5.652L18.774,76.121a14.793,14.793,0,0,0,8.547,19.068l9.206,3.477A14.8,14.8,0,0,0,55.6,90.118l5.651-14.9,14.873,5.643A14.76,14.76,0,0,0,95.19,72.317l3.476-9.205a14.793,14.793,0,0,0-8.548-19.069l-14.9-5.651,5.643-14.874A14.794,14.794,0,0,0,72.317,4.449L63.112.973A14.646,14.646,0,0,0,57.868,0,14.825,14.825,0,0,0,44.042,9.52Z" transform="translate(0 0)" fill="#cc9ff8"/>
    </g>
    <g id="Shape_14-6" data-name="Shape 14" transform="translate(55.196 827.527)" opacity="0.93">
      <path id="Path_128-6" data-name="Path 128" d="M450.134,201.419l-41.388,20.749a8.753,8.753,0,0,0-3.973,11.809l20.749,41.387a8.753,8.753,0,0,0,11.809,3.973l41.388-20.749a8.753,8.753,0,0,0,3.973-11.809l-20.749-41.388A8.753,8.753,0,0,0,450.134,201.419Z" transform="translate(-403.823 -188.943)" fill="#6d11b1" opacity="0.89"/>
      <path id="Path_129-6" data-name="Path 129" d="M442.549,150.852l-37.132,18.616a7.853,7.853,0,0,0-3.565,10.6L420.468,217.2a7.853,7.853,0,0,0,10.6,3.565L468.2,202.145a7.853,7.853,0,0,0,3.565-10.6l-18.616-37.133A7.853,7.853,0,0,0,442.549,150.852Z" transform="translate(-392.149 -150)" fill="#a987fd"/>
    </g>
    <g id="Shape_13-8" data-name="Shape 13" transform="translate(1707.745 985.597)">
      <path id="Path_130-8" data-name="Path 130" d="M481.687,228.526a35.207,35.207,0,1,0,35.207,35.207A35.207,35.207,0,0,0,481.687,228.526ZM412.12,263.733A69.567,69.567,0,1,1,481.687,333.3,69.567,69.567,0,0,1,412.12,263.733Z" transform="translate(-402.689 -176.897)" fill="#7004d8" fill-rule="evenodd" opacity="0.89"/>
      <path id="Path_131-8" data-name="Path 131" d="M453.419,182.724a32.7,32.7,0,1,0,32.695,32.7A32.7,32.7,0,0,0,453.419,182.724ZM388,215.419a65.419,65.419,0,1,1,65.419,65.419A65.419,65.419,0,0,1,388,215.419Z" transform="translate(-388 -150)" fill="#b263ff" fill-rule="evenodd"/>
    </g>
    <g id="Shape_12-6" data-name="Shape 12" transform="matrix(0.966, -0.259, 0.259, 0.966, 1653.384, 727.937)">
      <path id="Path_132-6" data-name="Path 132" d="M38.2,1.016l-9.615,3.63a15.453,15.453,0,0,0-8.929,19.918l5.9,15.562L9.945,46.052A15.453,15.453,0,0,0,1.016,65.969l3.63,9.616a15.453,15.453,0,0,0,19.918,8.928L40.159,78.6l5.893,15.532a15.453,15.453,0,0,0,19.918,8.928l9.616-3.63a15.453,15.453,0,0,0,8.928-19.918L78.629,64l15.5-5.881A15.453,15.453,0,0,0,103.057,38.2l-3.63-9.615a15.417,15.417,0,0,0-19.918-8.929L64.033,25.53,58.12,9.945A15.453,15.453,0,0,0,38.2,1.016Z" transform="translate(15.594 0)" fill="#490792" fill-rule="evenodd" opacity="0.89"/>
      <path id="Union_5-6" data-name="Union 5" d="M44.042,90.118l-5.652-14.9L23.517,80.864A14.794,14.794,0,0,1,4.448,72.316L.973,63.11A14.8,14.8,0,0,1,9.521,44.041l14.9-5.652L18.774,23.517A14.793,14.793,0,0,1,27.321,4.449L36.528.972A14.8,14.8,0,0,1,55.6,9.521l5.651,14.9,14.873-5.643A14.76,14.76,0,0,1,95.19,27.321l3.475,9.205A14.793,14.793,0,0,1,90.117,55.6l-14.9,5.651,5.643,14.874A14.794,14.794,0,0,1,72.317,95.19l-9.205,3.475a14.646,14.646,0,0,1-5.244.973A14.825,14.825,0,0,1,44.042,90.118Z" transform="translate(0 9.742)" fill="#cc9ff8"/>
    </g>
    <g id="Shape_14-7" data-name="Shape 14" transform="translate(1347.196 765.527)" opacity="0.93">
      <path id="Path_128-7" data-name="Path 128" d="M437.331,201.419l41.388,20.749a8.753,8.753,0,0,1,3.973,11.809l-20.749,41.387a8.753,8.753,0,0,1-11.809,3.973l-41.388-20.749a8.753,8.753,0,0,1-3.973-11.809l20.749-41.388A8.753,8.753,0,0,1,437.331,201.419Z" transform="translate(-403.178 -188.943)" fill="#4824c7" opacity="0.89"/>
      <path id="Path_129-7" data-name="Path 129" d="M431.063,150.852,468.2,169.468a7.853,7.853,0,0,1,3.565,10.6L453.145,217.2a7.853,7.853,0,0,1-10.6,3.565l-37.133-18.616a7.853,7.853,0,0,1-3.565-10.6l18.616-37.133A7.853,7.853,0,0,1,431.063,150.852Z" transform="translate(-401 -150)" fill="#8257fd"/>
    </g>
    <g id="Shape_14-8" data-name="Shape 14" transform="translate(1573.196 879.527)" opacity="0.93">
      <path id="Path_128-8" data-name="Path 128" d="M437.331,201.419l41.388,20.749a8.753,8.753,0,0,1,3.973,11.809l-20.749,41.387a8.753,8.753,0,0,1-11.809,3.973l-41.388-20.749a8.753,8.753,0,0,1-3.973-11.809l20.749-41.388A8.753,8.753,0,0,1,437.331,201.419Z" transform="translate(-403.178 -188.943)" fill="#3c17bf" opacity="0.89"/>
      <path id="Path_129-8" data-name="Path 129" d="M431.063,150.852,468.2,169.468a7.853,7.853,0,0,1,3.565,10.6L453.145,217.2a7.853,7.853,0,0,1-10.6,3.565l-37.133-18.616a7.853,7.853,0,0,1-3.565-10.6l18.616-37.133A7.853,7.853,0,0,1,431.063,150.852Z" transform="translate(-401 -150)" fill="#a987fd"/>
    </g>
    <g id="Shape_12-7" data-name="Shape 12" transform="matrix(0.966, -0.259, 0.259, 0.966, 1072.384, 682.937)">
      <path id="Path_132-7" data-name="Path 132" d="M38.2,1.016l-9.615,3.63a15.453,15.453,0,0,0-8.929,19.918l5.9,15.562L9.945,46.052A15.453,15.453,0,0,0,1.016,65.969l3.63,9.616a15.453,15.453,0,0,0,19.918,8.928L40.159,78.6l5.893,15.532a15.453,15.453,0,0,0,19.918,8.928l9.616-3.63a15.453,15.453,0,0,0,8.928-19.918L78.629,64l15.5-5.881A15.453,15.453,0,0,0,103.057,38.2l-3.63-9.615a15.417,15.417,0,0,0-19.918-8.929L64.033,25.53,58.12,9.945A15.453,15.453,0,0,0,38.2,1.016Z" transform="translate(15.594 0)" fill="#490792" fill-rule="evenodd" opacity="0.89"/>
      <path id="Union_5-7" data-name="Union 5" d="M44.042,90.118l-5.652-14.9L23.517,80.864A14.794,14.794,0,0,1,4.448,72.316L.973,63.11A14.8,14.8,0,0,1,9.521,44.041l14.9-5.652L18.774,23.517A14.793,14.793,0,0,1,27.321,4.449L36.528.972A14.8,14.8,0,0,1,55.6,9.521l5.651,14.9,14.873-5.643A14.76,14.76,0,0,1,95.19,27.321l3.475,9.205A14.793,14.793,0,0,1,90.117,55.6l-14.9,5.651,5.643,14.874A14.794,14.794,0,0,1,72.317,95.19l-9.205,3.475a14.646,14.646,0,0,1-5.244.973A14.825,14.825,0,0,1,44.042,90.118Z" transform="translate(0 9.742)" fill="#cc9ff8"/>
    </g>
  </g>
</svg>
