<svg xmlns="http://www.w3.org/2000/svg" width="182.813" height="182.812" viewBox="0 0 182.813 182.812">
  <g id="avatar-29_1x_1_" data-name="avatar-29@1x (1)" transform="translate(-110 -10)">
    <path id="Path_278" data-name="Path 278" d="M292.812,101.446a91.332,91.332,0,0,1-14.593,49.57c-1.11,1.665-2.221,3.331-3.49,5a91.994,91.994,0,0,1-45.683,32.6,93.527,93.527,0,0,1-14.117,3.252,97.547,97.547,0,0,1-11.818.952h-1.665a90.662,90.662,0,0,1-29.107-4.759,88.277,88.277,0,0,1-12.61-5.314,91.4,91.4,0,1,1,133.084-81.294Z" transform="translate(0)" fill="#6f3ce9"/>
    <path id="Path_279" data-name="Path 279" d="M322.651,407.536,318.606,420.7l-.555,1.9-.634,2.062-.872,2.934-5.393,17.766h-1.665a90.671,90.671,0,0,1-29.107-4.758,88.351,88.351,0,0,1-12.61-5.314l12.452-40.766a22.223,22.223,0,0,1,24.586-15.466,17.552,17.552,0,0,1,2.776.634c.079,0,.159.079.317.079a17.942,17.942,0,0,1,3.41,1.348c.4.159.714.4,1.031.555.714.4,1.427.872,2.141,1.348a16.6,16.6,0,0,1,2.221,1.9l1.19,1.19A22.4,22.4,0,0,1,322.651,407.536Z" transform="translate(-108.04 -252.555)" fill="#c4b6ff"/>
    <path id="Path_280" data-name="Path 280" d="M322.651,407.536,318.606,420.7l-.555,1.9-.634,2.062-.872,2.934-5.393,17.766h-1.665a90.671,90.671,0,0,1-29.107-4.758,88.351,88.351,0,0,1-12.61-5.314l12.452-40.766a22.223,22.223,0,0,1,24.586-15.466,17.552,17.552,0,0,1,2.776.634c.079,0,.159.079.317.079a17.942,17.942,0,0,1,3.41,1.348c.4.159.714.4,1.031.555.714.4,1.427.872,2.141,1.348a16.6,16.6,0,0,1,2.221,1.9l1.19,1.19A22.4,22.4,0,0,1,322.651,407.536Z" transform="translate(-108.04 -252.555)" fill="#ddd4ff"/>
    <path id="Path_281" data-name="Path 281" d="M404.743,371.233a91.995,91.995,0,0,1-45.683,32.6,93.525,93.525,0,0,1-14.118,3.252,97.555,97.555,0,0,1-11.817.952h-1.665a90.663,90.663,0,0,1-29.107-4.759l-2.379-28.869a35.59,35.59,0,0,1,18.717-34.262c2.458-1.348,5.076-2.617,7.614-3.728a8.17,8.17,0,0,1,.793-.317q2.5-1.071,5-1.9a32.706,32.706,0,0,1,5.076-1.428c.079,0,.159-.079.317-.079.238-.079.476-.079.714-.159s.476-.079.714-.159c13.721-2.379,21.731,4.441,28.314-7.376.159-.238.238-.476.4-.714.872.555,1.824,1.19,2.776,1.9a120.275,120.275,0,0,1,15.7,12.452c8.565,8.169,16.417,18.8,18.559,32.359C404.743,371,404.743,371.154,404.743,371.233Z" transform="translate(-130.013 -215.221)" fill="#c4b6ff"/>
    <path id="Path_282" data-name="Path 282" d="M391.2,342.9l-7.931,3.41,6.5,16.973,10.31-12.928Z" transform="translate(-187.133 -227.972)" fill="#b5cdfb"/>
    <path id="Path_283" data-name="Path 283" d="M388.564,298.15c1.586-8.01-.476-15.7-1.348-20.383-1.428-8.09-5.71-10.786-5.71-10.786l23.4-15.069,6.027-4.124s.159,16.338,10.787,23.4C432.343,278.163,388.564,298.15,388.564,298.15Z" transform="translate(-185.928 -162.838)" fill="#fabd8c"/>
    <path id="Path_284" data-name="Path 284" d="M407.8,281.319c-3.648,4.124-13.88,6.027-13.88,6.027a104.807,104.807,0,0,0-2.855-12.531l20.462-14.2a30.4,30.4,0,0,1,.793,4.045C412.8,267.678,407.8,281.319,407.8,281.319Z" transform="translate(-192.474 -171.625)" fill="#242424"/>
    <path id="Path_285" data-name="Path 285" d="M322.3,191.92s-24.824,13.562-33.39,9.755l-17.369-68.128h52.98L340.939,146.4l-5.234,23.08c0,1.269-2.617,2.221-5.155,6.583C326.9,182.244,323.887,191.048,322.3,191.92Z" transform="translate(-110.625 -84.606)" fill="#fabd8c"/>
    <path id="Path_286" data-name="Path 286" d="M338.514,68.915s-10.548-2.617-22.921,4.6S284.9,84.063,277.206,82.556s-16.259-7.773-13.562-13.166,36.483-28.314,53.139-20.145C333.438,57.335,338.514,64.711,338.514,68.915Z" transform="translate(-104.869 -25.683)" fill="#242424"/>
    <path id="Path_287" data-name="Path 287" d="M419.51,107.016s-.4,23.635-2.141,28.156c-.872,2.3-4.2,7.772-4.521,5.234-.555-3.886.238-16.259-1.9-15.942-7.138,1.11-7.138,17.131-7.138,17.131l-5.711-3.49s-.793-10.469-3.886-10.866-3.49-12.769-3.49-12.769-11.421.714-8.962-1.665C384.216,110.347,399.286,96.547,419.51,107.016Z" transform="translate(-185.864 -63.784)" fill="#242424"/>
    <path id="Path_288" data-name="Path 288" d="M453.971,182.852s4.6-10.548,9.041-8.09-2.221,20.7-6.107,20.145-2.141-9.359.714-10.231Z" transform="translate(-235.553 -112.575)" fill="#fabd8c"/>
    <path id="Path_289" data-name="Path 289" d="M455.968,194.492h-.238c-1.507-.238-2.459-1.507-2.617-3.569-.238-2.934,1.19-6.82,3.252-7.455a.376.376,0,1,1,.238.714c-1.507.476-2.855,3.886-2.7,6.583.079.952.4,2.617,1.9,2.855s3.966-3.41,5.631-8.248c1.9-5.552,1.983-10.152.238-11.1a2.352,2.352,0,0,0-2.062-.159c-3.331,1.11-6.345,8.01-6.424,8.09a.427.427,0,0,1-.793-.317c.159-.317,3.172-7.3,6.9-8.486a3.213,3.213,0,0,1,2.7.238c2.617,1.507,1.745,7.455.159,12.055C460.647,190.13,458.189,194.492,455.968,194.492Z" transform="translate(-234.456 -111.764)" fill="#242424"/>
    <path id="Path_290" data-name="Path 290" d="M322.173,229.163a3.012,3.012,0,0,1-3.014-3.014v-.079c1.745-8.248,1.348-13.8-1.507-17.924a.392.392,0,0,1,.079-.555c.159-.159.4-.079.555.079,3.728,5.552,2.855,12.769,1.586,18.48a2.133,2.133,0,0,0,2.141,2.141l6.107-1.586c.238-.079.4.079.476.317s-.079.4-.317.476Z" transform="translate(-142.142 -135.252)" fill="#242424"/>
    <path id="Path_291" data-name="Path 291" d="M347.192,195.056a2.105,2.105,0,0,1-1.824-1.11,1.975,1.975,0,0,1,.952-2.617l9.28-4.283a4.316,4.316,0,0,1,4.758,1.19c.634.714,1.586,2.221,1.824,2.459a2,2,0,1,1-3.331,2.221,16.321,16.321,0,0,0-1.427-1.983c-.079-.079-.238-.159-.317-.079l-9.042,4.2A3.2,3.2,0,0,0,347.192,195.056Z" transform="translate(-161.054 -121.052)" fill="#242424"/>
    <path id="Path_292" data-name="Path 292" d="M288.949,217.6a1.945,1.945,0,0,1-1.9-1.586,2.048,2.048,0,0,1,1.507-2.379l6.583-1.428a2.006,2.006,0,0,1,2.379,1.507,2.047,2.047,0,0,1-1.507,2.379l-6.583,1.428A1.009,1.009,0,0,1,288.949,217.6Z" transform="translate(-121.21 -138.44)" fill="#242424"/>
    <path id="Path_293" data-name="Path 293" d="M341.081,287.2a10.7,10.7,0,0,1-2.935-.476.376.376,0,1,1,.238-.714c2.379.714,4.2.555,5.393-.4a5.386,5.386,0,0,0,1.824-3.965.4.4,0,1,1,.793,0,6.041,6.041,0,0,1-2.141,4.6A5.034,5.034,0,0,1,341.081,287.2Z" transform="translate(-156.053 -185.755)" fill="#242424"/>
    <path id="Path_294" data-name="Path 294" d="M305.28,230.424s-1.269,1.9-2.776,2.141a3.543,3.543,0,0,1-2.776-1.19Z" transform="translate(-129.927 -150.948)" fill="#242424"/>
    <path id="Path_295" data-name="Path 295" d="M361.372,219.7a1.99,1.99,0,0,0,2.221,1.824,2.034,2.034,0,0,0,1.824-2.221C365.338,218.113,361.293,218.509,361.372,219.7Z" transform="translate(-172.14 -142.84)" fill="#242424"/>
    <path id="Path_296" data-name="Path 296" d="M528.268,380.013a22.191,22.191,0,0,0-14.593-11.976,21.516,21.516,0,0,0-14.99,1.507,22.143,22.143,0,0,0-10.469,29.583l13.324,27.918a92.187,92.187,0,0,0,30.773-26.331c1.19-1.665,2.379-3.331,3.49-5Z" transform="translate(-257.504 -244.7)" fill="#c4b6ff"/>
    <path id="Path_297" data-name="Path 297" d="M528.268,380.013a22.191,22.191,0,0,0-14.593-11.976,21.516,21.516,0,0,0-14.99,1.507,22.143,22.143,0,0,0-10.469,29.583l13.324,27.918a92.187,92.187,0,0,0,30.773-26.331c1.19-1.665,2.379-3.331,3.49-5Z" transform="translate(-257.504 -244.7)" fill="rgba(255,255,255,0.41)"/>
    <path id="Path_298" data-name="Path 298" d="M441.654,330.07a48.153,48.153,0,0,1-6.821,8.328l-.238.238-.476.476c-.4.4-.872.793-1.348,1.189a39.528,39.528,0,0,1-4.917,3.648c-1.9,1.19-3.093-.555-6.742,3.727-2.379,2.855-16.1,7.614-17.211,6.821l5.552-21.018C422.944,342.1,441.654,330.07,441.654,330.07Z" transform="translate(-201.266 -219.186)" fill="#242424"/>
    <path id="Path_299" data-name="Path 299" d="M453.714,303.075c-.476,1.824-3.252,5-6.821,8.328l-.238.238-.476.476c-.4.4-.872.793-1.348,1.19-6.186,5.631-13.642,11.262-14.99,11.818a1.572,1.572,0,0,1-1.19-.317c-4.045-2.22-7.138-18.242-7.138-18.242.793-.317,17.528-7.693,19.828-15.862a1.166,1.166,0,0,1,.872.079C445.307,292.289,453.714,303.075,453.714,303.075Z" transform="translate(-213.326 -192.191)" fill="#b5cdfb"/>
    <path id="Path_300" data-name="Path 300" d="M383.265,353.721l.634,8.724,5.869,8.248Z" transform="translate(-187.133 -235.382)" fill="#242424"/>
    <path id="Path_301" data-name="Path 301" d="M442.2,534.618a93.485,93.485,0,0,1-14.117,3.252c-3.014-.476-5.235-.952-5.235-.952l-1.19-15.783-.238-2.934-.159-1.983,1.9-.079,17.449-.872s.159,1.031.4,2.617C441.643,521.849,442.595,529.78,442.2,534.618Z" transform="translate(-213.153 -346.009)" fill="#b5cdfb"/>
    <path id="Path_302" data-name="Path 302" d="M442.2,534.618a93.485,93.485,0,0,1-14.117,3.252c-3.014-.476-5.235-.952-5.235-.952l-1.19-15.783-.238-2.934-.159-1.983,1.9-.079,17.449-.872s.159,1.031.4,2.617C441.643,521.849,442.595,529.78,442.2,534.618Z" transform="translate(-213.153 -346.009)" fill="rgba(0,0,0,0.21)"/>
    <path id="Path_303" data-name="Path 303" d="M435.59,515.709H416.952a1.983,1.983,0,0,1,0-3.965H435.59a1.983,1.983,0,0,1,0,3.965Z" transform="translate(-208.844 -343.597)" fill="#b5cdfb"/>
  </g>
</svg>
